{
	"asset":{
		"generator":"Khronos glTF Blender I/O v4.2.60",
		"version":"2.0"
	},
	"scene":0,
	"scenes":[
		{
			"name":"Scene",
			"nodes":[
				0
			]
		}
	],
	"nodes":[
		{
			"mesh":0,
			"name":"CrateDefaultCube_SceneDetails_0",
			"rotation":[
				-0.70710688829422,
				0,
				0,
				0.7071066498756409
			],
			"scale":[
				0.02500000037252903,
				0.025000005960464478,
				0.025000005960464478
			],
			"translation":[
				-0.25,
				0,
				-7.695112228393555
			]
		}
	],
	"materials":[
		{
			"doubleSided":true,
			"name":"SceneDetails",
			"pbrMetallicRoughness":{
				"baseColorTexture":{
					"index":0
				},
				"metallicRoughnessTexture":{
					"index":1
				}
			}
		},
		{
			"alphaMode":"BLEND",
			"doubleSided":true,
			"name":"Glass",
			"normalTexture":{
				"index":2
			},
			"pbrMetallicRoughness":{
				"baseColorFactor":[
					0.5781430006027222,
					0.9309813976287842,
					0.8888309001922607,
					0.5
				],
				"metallicFactor":0,
				"roughnessFactor":0.8040408492088318
			}
		}
	],
	"meshes":[
		{
			"name":"CrateDefaultCube_SceneDetails_0",
			"primitives":[
				{
					"attributes":{
						"POSITION":0,
						"NORMAL":1,
						"TEXCOORD_0":2,
						"TEXCOORD_1":3
					},
					"indices":4,
					"material":0
				},
				{
					"attributes":{
						"POSITION":5,
						"NORMAL":6,
						"TEXCOORD_0":7,
						"TEXCOORD_1":8
					},
					"indices":9,
					"material":1
				}
			]
		}
	],
	"textures":[
		{
			"sampler":0,
			"source":0
		},
		{
			"sampler":0,
			"source":1
		},
		{
			"sampler":0,
			"source":2
		}
	],
	"images":[
		{
			"mimeType":"image/png",
			"name":"SceneDetails_baseColor",
			"uri":"SceneDetails_baseColor.png"
		},
		{
			"mimeType":"image/png",
			"name":"SceneDetails_metallicRoughness",
			"uri":"SceneDetails_metallicRoughness.png"
		},
		{
			"mimeType":"image/png",
			"name":"Glass_normal",
			"uri":"Glass_normal.png"
		}
	],
	"accessors":[
		{
			"bufferView":0,
			"componentType":5126,
			"count":688,
			"max":[
				1.4500010013580322,
				1.4500008821487427,
				2.899998664855957
			],
			"min":[
				-1.4499990940093994,
				-1.449999213218689,
				-1.3113021850585938e-06
			],
			"type":"VEC3"
		},
		{
			"bufferView":1,
			"componentType":5126,
			"count":688,
			"type":"VEC3"
		},
		{
			"bufferView":2,
			"componentType":5126,
			"count":688,
			"type":"VEC2"
		},
		{
			"bufferView":3,
			"componentType":5126,
			"count":688,
			"type":"VEC2"
		},
		{
			"bufferView":4,
			"componentType":5123,
			"count":1008,
			"type":"SCALAR"
		},
		{
			"bufferView":5,
			"componentType":5126,
			"count":76,
			"max":[
				1.3292418718338013,
				1.329271912574768,
				2.450000047683716
			],
			"min":[
				-1.3292409181594849,
				-1.329210877418518,
				0.4500000476837158
			],
			"type":"VEC3"
		},
		{
			"bufferView":6,
			"componentType":5126,
			"count":76,
			"type":"VEC3"
		},
		{
			"bufferView":7,
			"componentType":5126,
			"count":76,
			"type":"VEC2"
		},
		{
			"bufferView":8,
			"componentType":5126,
			"count":76,
			"type":"VEC2"
		},
		{
			"bufferView":9,
			"componentType":5123,
			"count":144,
			"type":"SCALAR"
		}
	],
	"bufferViews":[
		{
			"buffer":0,
			"byteLength":8256,
			"byteOffset":0,
			"target":34962
		},
		{
			"buffer":0,
			"byteLength":8256,
			"byteOffset":8256,
			"target":34962
		},
		{
			"buffer":0,
			"byteLength":5504,
			"byteOffset":16512,
			"target":34962
		},
		{
			"buffer":0,
			"byteLength":5504,
			"byteOffset":22016,
			"target":34962
		},
		{
			"buffer":0,
			"byteLength":2016,
			"byteOffset":27520,
			"target":34963
		},
		{
			"buffer":0,
			"byteLength":912,
			"byteOffset":29536,
			"target":34962
		},
		{
			"buffer":0,
			"byteLength":912,
			"byteOffset":30448,
			"target":34962
		},
		{
			"buffer":0,
			"byteLength":608,
			"byteOffset":31360,
			"target":34962
		},
		{
			"buffer":0,
			"byteLength":608,
			"byteOffset":31968,
			"target":34962
		},
		{
			"buffer":0,
			"byteLength":288,
			"byteOffset":32576,
			"target":34963
		}
	],
	"samplers":[
		{
			"magFilter":9729,
			"minFilter":9987
		}
	],
	"buffers":[
		{
			"byteLength":32864,
			"uri":"cube.bin"
		}
	]
}
