{
	"asset":{
		"generator":"Khronos glTF Blender I/O v4.2.60",
		"version":"2.0"
	},
	"scene":0,
	"scenes":[
		{
			"name":"Scene",
			"nodes":[
				0
			]
		}
	],
	"nodes":[
		{
			"mesh":0,
			"name":"Cylinder.003_Glass_0",
			"rotation":[
				-0.70710688829422,
				0,
				0,
				0.7071066498756409
			],
			"scale":[
				0.02500000037252903,
				0.025000005960464478,
				0.025000005960464478
			],
			"translation":[
				-0.25,
				0,
				-7.595111846923828
			]
		}
	],
	"materials":[
		{
			"alphaMode":"BLEND",
			"doubleSided":true,
			"name":"Glass",
			"normalTexture":{
				"index":0
			},
			"pbrMetallicRoughness":{
				"baseColorFactor":[
					0.5781430006027222,
					0.9309813976287842,
					0.8888309001922607,
					0.5
				],
				"metallicFactor":0,
				"roughnessFactor":0.8040408492088318
			}
		},
		{
			"doubleSided":true,
			"name":"SceneDetails",
			"pbrMetallicRoughness":{
				"baseColorTexture":{
					"index":1
				},
				"metallicRoughnessTexture":{
					"index":2
				}
			}
		}
	],
	"meshes":[
		{
			"name":"Cylinder.003_Glass_0",
			"primitives":[
				{
					"attributes":{
						"POSITION":0,
						"NORMAL":1,
						"TEXCOORD_0":2,
						"TEXCOORD_1":3
					},
					"indices":4,
					"material":0
				},
				{
					"attributes":{
						"POSITION":5,
						"NORMAL":6,
						"TEXCOORD_0":7,
						"TEXCOORD_1":8
					},
					"indices":9,
					"material":1
				}
			]
		}
	],
	"textures":[
		{
			"sampler":0,
			"source":0
		},
		{
			"sampler":0,
			"source":1
		},
		{
			"sampler":0,
			"source":2
		}
	],
	"images":[
		{
			"mimeType":"image/png",
			"name":"Glass_normal",
			"uri":"Glass_normal.png"
		},
		{
			"mimeType":"image/png",
			"name":"SceneDetails_baseColor",
			"uri":"SceneDetails_baseColor.png"
		},
		{
			"mimeType":"image/png",
			"name":"SceneDetails_metallicRoughness",
			"uri":"SceneDetails_metallicRoughness.png"
		}
	],
	"accessors":[
		{
			"bufferView":0,
			"componentType":5126,
			"count":64,
			"max":[
				0.9068982005119324,
				0.9118936061859131,
				4
			],
			"min":[
				-0.9068980813026428,
				-0.8919665813446045,
				0.7999999523162842
			],
			"type":"VEC3"
		},
		{
			"bufferView":1,
			"componentType":5126,
			"count":64,
			"type":"VEC3"
		},
		{
			"bufferView":2,
			"componentType":5126,
			"count":64,
			"type":"VEC2"
		},
		{
			"bufferView":3,
			"componentType":5126,
			"count":64,
			"type":"VEC2"
		},
		{
			"bufferView":4,
			"componentType":5123,
			"count":180,
			"type":"SCALAR"
		},
		{
			"bufferView":5,
			"componentType":5126,
			"count":341,
			"max":[
				0.997588038444519,
				1.0030832290649414,
				4.680000305175781
			],
			"min":[
				-0.9975879192352295,
				-0.9811630845069885,
				0
			],
			"type":"VEC3"
		},
		{
			"bufferView":6,
			"componentType":5126,
			"count":341,
			"type":"VEC3"
		},
		{
			"bufferView":7,
			"componentType":5126,
			"count":341,
			"type":"VEC2"
		},
		{
			"bufferView":8,
			"componentType":5126,
			"count":341,
			"type":"VEC2"
		},
		{
			"bufferView":9,
			"componentType":5123,
			"count":1029,
			"type":"SCALAR"
		}
	],
	"bufferViews":[
		{
			"buffer":0,
			"byteLength":768,
			"byteOffset":0,
			"target":34962
		},
		{
			"buffer":0,
			"byteLength":768,
			"byteOffset":768,
			"target":34962
		},
		{
			"buffer":0,
			"byteLength":512,
			"byteOffset":1536,
			"target":34962
		},
		{
			"buffer":0,
			"byteLength":512,
			"byteOffset":2048,
			"target":34962
		},
		{
			"buffer":0,
			"byteLength":360,
			"byteOffset":2560,
			"target":34963
		},
		{
			"buffer":0,
			"byteLength":4092,
			"byteOffset":2920,
			"target":34962
		},
		{
			"buffer":0,
			"byteLength":4092,
			"byteOffset":7012,
			"target":34962
		},
		{
			"buffer":0,
			"byteLength":2728,
			"byteOffset":11104,
			"target":34962
		},
		{
			"buffer":0,
			"byteLength":2728,
			"byteOffset":13832,
			"target":34962
		},
		{
			"buffer":0,
			"byteLength":2058,
			"byteOffset":16560,
			"target":34963
		}
	],
	"samplers":[
		{
			"magFilter":9729,
			"minFilter":9987
		}
	],
	"buffers":[
		{
			"byteLength":18620,
			"uri":"cylinder.bin"
		}
	]
}
