{
	"asset":{
		"generator":"Khronos glTF Blender I/O v4.2.60",
		"version":"2.0"
	},
	"scene":0,
	"scenes":[
		{
			"name":"Scene",
			"nodes":[
				0
			]
		}
	],
	"nodes":[
		{
			"mesh":0,
			"name":"ReactorCoreShell_ReactorCoreShell_0",
			"rotation":[
				-0.70710688829422,
				0,
				0,
				0.7071066498756409
			],
			"scale":[
				0.006799568422138691,
				0.006799569819122553,
				0.006799569819122553
			],
			"translation":[
				-0.27947425842285156,
				0.056696534156799316,
				-7.484795093536377
			]
		}
	],
	"materials":[
		{
			"alphaMode":"BLEND",
			"doubleSided":true,
			"name":"ReactorCoreShell",
			"normalTexture":{
				"index":0
			},
			"pbrMetallicRoughness":{
				"baseColorFactor":[
					0.013314292766153812,
					0.013314292766153812,
					0.013314292766153812,
					0.800000011920929
				],
				"metallicFactor":0,
				"roughnessFactor":0.8040408492088318
			}
		},
		{
			"doubleSided":true,
			"emissiveFactor":[
				1,
				1,
				1
			],
			"emissiveTexture":{
				"index":1
			},
			"name":"ReactorCore",
			"pbrMetallicRoughness":{
				"baseColorTexture":{
					"index":2
				},
				"metallicFactor":0,
				"roughnessFactor":0.8211145401000977
			}
		}
	],
	"meshes":[
		{
			"name":"ReactorCoreShell_ReactorCoreShell_0",
			"primitives":[
				{
					"attributes":{
						"POSITION":0,
						"NORMAL":1,
						"TEXCOORD_0":2,
						"TEXCOORD_1":3
					},
					"indices":4,
					"material":0
				},
				{
					"attributes":{
						"POSITION":5,
						"NORMAL":6,
						"TEXCOORD_0":7,
						"TEXCOORD_1":8
					},
					"indices":9,
					"material":1
				}
			]
		}
	],
	"textures":[
		{
			"sampler":0,
			"source":0
		},
		{
			"sampler":0,
			"source":1
		},
		{
			"sampler":0,
			"source":1
		}
	],
	"images":[
		{
			"mimeType":"image/png",
			"name":"Glass_normal",
			"uri":"Glass_normal.png"
		},
		{
			"mimeType":"image/png",
			"name":"ReactorCore_baseColor",
			"uri":"ReactorCore_baseColor.png"
		}
	],
	"accessors":[
		{
			"bufferView":0,
			"componentType":5126,
			"count":559,
			"max":[
				7.800000190734863,
				7.799990653991699,
				7.800000190734863
			],
			"min":[
				-7.799992561340332,
				-7.799995422363281,
				-7.800000190734863
			],
			"type":"VEC3"
		},
		{
			"bufferView":1,
			"componentType":5126,
			"count":559,
			"type":"VEC3"
		},
		{
			"bufferView":2,
			"componentType":5126,
			"count":559,
			"type":"VEC2"
		},
		{
			"bufferView":3,
			"componentType":5126,
			"count":559,
			"type":"VEC2"
		},
		{
			"bufferView":4,
			"componentType":5123,
			"count":2880,
			"type":"SCALAR"
		},
		{
			"bufferView":5,
			"componentType":5126,
			"count":559,
			"max":[
				2.18399977684021,
				2.183910846710205,
				2.1840035915374756
			],
			"min":[
				-2.183997631072998,
				-2.1840856075286865,
				-2.1839969158172607
			],
			"type":"VEC3"
		},
		{
			"bufferView":6,
			"componentType":5126,
			"count":559,
			"type":"VEC3"
		},
		{
			"bufferView":7,
			"componentType":5126,
			"count":559,
			"type":"VEC2"
		},
		{
			"bufferView":8,
			"componentType":5126,
			"count":559,
			"type":"VEC2"
		},
		{
			"bufferView":9,
			"componentType":5123,
			"count":2880,
			"type":"SCALAR"
		}
	],
	"bufferViews":[
		{
			"buffer":0,
			"byteLength":6708,
			"byteOffset":0,
			"target":34962
		},
		{
			"buffer":0,
			"byteLength":6708,
			"byteOffset":6708,
			"target":34962
		},
		{
			"buffer":0,
			"byteLength":4472,
			"byteOffset":13416,
			"target":34962
		},
		{
			"buffer":0,
			"byteLength":4472,
			"byteOffset":17888,
			"target":34962
		},
		{
			"buffer":0,
			"byteLength":5760,
			"byteOffset":22360,
			"target":34963
		},
		{
			"buffer":0,
			"byteLength":6708,
			"byteOffset":28120,
			"target":34962
		},
		{
			"buffer":0,
			"byteLength":6708,
			"byteOffset":34828,
			"target":34962
		},
		{
			"buffer":0,
			"byteLength":4472,
			"byteOffset":41536,
			"target":34962
		},
		{
			"buffer":0,
			"byteLength":4472,
			"byteOffset":46008,
			"target":34962
		},
		{
			"buffer":0,
			"byteLength":5760,
			"byteOffset":50480,
			"target":34963
		}
	],
	"samplers":[
		{
			"magFilter":9729,
			"minFilter":9987
		}
	],
	"buffers":[
		{
			"byteLength":56240,
			"uri":"sphere.bin"
		}
	]
}
